<?xml version="1.0" encoding="UTF-8" standalone="no"?>
<!DOCTYPE svg PUBLIC "-//W3C//DTD SVG 1.1//EN" "http://www.w3.org/Graphics/SVG/1.1/DTD/svg11.dtd">
<svg width="100%" height="100%" viewBox="0 0 718 454" version="1.1" xmlns="http://www.w3.org/2000/svg" xmlns:xlink="http://www.w3.org/1999/xlink" xml:space="preserve" xmlns:serif="http://www.serif.com/" style="fill-rule:evenodd;clip-rule:evenodd;stroke-linejoin:round;stroke-miterlimit:1.41421;">
    <g transform="matrix(1,0,0,1,-255.615,-237.961)">
        <path d="M527.601,309.438C526.589,310.743 524.842,311.252 523.287,310.695C523.056,310.627 522.829,310.544 522.608,310.448C522.858,307.78 522.734,305.091 522.241,302.458C522.047,304.722 521.494,306.939 520.602,309.028C519.874,308.299 519.279,307.449 518.842,306.516C518.027,304.585 517.488,302.55 517.239,300.469C516.034,293.381 514.846,286.007 516.811,279.08C519.69,268.961 528.768,261.687 532.56,251.869L534.428,250.192C537.626,255.638 537.767,262.404 536.464,268.579C535.167,274.766 532.554,280.573 530.489,286.539C528.423,292.506 526.876,298.852 527.834,305.096C528.054,306.566 528.39,308.181 527.601,309.438Z" style="fill:rgb(47,46,65);fill-rule:nonzero;"/>
    </g>
    <path d="M230.469,157.098L218.295,212.779L271.469,230.098L263.65,157.098L230.469,157.098Z" style="fill:rgb(255,182,182);fill-rule:nonzero;"/>
    <g transform="matrix(1,0,0,1,-255.615,-237.961)">
        <path d="M861.314,690.559L885.41,690.559L885.41,580.09C885.343,521.126 836.843,472.626 777.879,472.559L553.94,472.559C494.976,472.626 446.476,521.126 446.41,580.09L446.41,690.559L470.505,690.559L470.505,615.09C470.572,555.577 519.523,506.626 579.036,506.559L752.783,506.559C812.296,506.626 861.247,555.577 861.314,615.09L861.314,690.559Z" style="fill:rgb(230,230,230);fill-rule:nonzero;"/>
    </g>
    <g transform="matrix(1,0,0,1,-255.615,-237.961)">
        <path d="M568.509,632.767L542.829,624.992C541.159,618.13 540.316,611.092 540.32,604.029C540.355,599.446 544.135,595.695 548.719,595.695C550.701,595.695 552.62,596.396 554.135,597.674C567.908,609.488 588.083,615.792 601.103,629.254C612.011,640.708 617.127,656.529 614.991,672.2L620.612,690.381C595.166,688.545 571.764,675.638 556.635,655.097C552.495,649.358 549.094,643.12 546.513,636.532C557.405,635.296 568.509,632.767 568.509,632.767Z" style="fill:rgb(242,242,242);fill-rule:nonzero;"/>
    </g>
    <g transform="matrix(1,0,0,1,-255.615,-237.961)">
        <path d="M635.438,662.54L648.536,658.575C648.553,658.505 648.57,658.436 648.586,658.366C648.724,657.757 648.793,657.135 648.793,656.51C648.793,651.897 644.998,648.101 640.384,648.101C638.878,648.101 637.4,648.506 636.103,649.273C630.158,652.805 623.556,655.846 618.814,660.749C613.251,666.59 610.641,674.66 611.731,682.653L608.864,691.926C621.842,690.989 633.778,684.406 641.494,673.929C643.606,671.002 645.34,667.821 646.657,664.46C641.101,663.83 635.438,662.54 635.438,662.54Z" style="fill:rgb(242,242,242);fill-rule:nonzero;"/>
    </g>
    <g transform="matrix(1,0,0,1,-255.615,-237.961)">
        <path d="M741.463,391.091L690.458,391.091C688.965,391.093 687.739,392.323 687.74,393.815L687.74,474.389L744.188,474.389L744.188,393.815C744.188,393.815 744.188,393.814 744.188,393.814C744.188,392.32 742.959,391.091 741.465,391.091C741.464,391.091 741.464,391.091 741.463,391.091ZM716.132,436.872C712.834,436.857 710.125,434.148 710.109,430.849L710.109,421.556C710.114,418.255 712.831,415.541 716.132,415.541C719.433,415.541 722.151,418.255 722.155,421.556L722.155,430.849C722.14,434.148 719.43,436.857 716.132,436.872Z" style="fill:rgb(63,61,86);fill-rule:nonzero;"/>
    </g>
    <g transform="matrix(1,0,0,1,-255.615,-237.961)">
        <path d="M825.924,265.347L607.895,265.347C604.021,265.353 600.835,268.539 600.829,272.413L600.829,419.54C600.832,423.415 604.02,426.603 607.895,426.606L825.924,426.606C829.799,426.603 832.987,423.415 832.99,419.54L832.99,272.413C832.984,268.539 829.798,265.353 825.924,265.347Z" style="fill:rgb(63,61,86);fill-rule:nonzero;"/>
    </g>
    <g transform="matrix(1,0,0,1,-255.615,-237.961)">
        <path d="M824.104,270.451L609.717,270.451C607.642,270.455 605.938,272.163 605.938,274.237L605.938,417.718C605.941,419.789 607.645,421.493 609.717,421.497L824.104,421.497C826.176,421.493 827.88,419.789 827.883,417.718L827.883,274.237C827.883,272.163 826.179,270.455 824.104,270.451Z" style="fill:white;fill-rule:nonzero;"/>
    </g>
    <g transform="matrix(1,0,0,1,-255.615,-237.961)">
        <path d="M687.565,471.812L687.565,479.586C687.567,480.419 688.252,481.104 689.085,481.105L742.843,481.105C743.675,481.101 744.359,480.418 744.363,479.586L744.363,471.812L687.565,471.812Z" style="fill:rgb(63,61,86);fill-rule:nonzero;"/>
    </g>
    <g transform="matrix(1,0,0,1,-255.615,-237.961)">
        <path d="M782.345,483.811L654.796,483.811C653.509,483.811 652.45,482.751 652.45,481.464C652.45,481.302 652.467,481.14 652.5,480.981L654.479,471.581C654.711,470.502 655.671,469.722 656.775,469.718L780.366,469.718C781.47,469.722 782.431,470.502 782.662,471.581L784.641,480.981C784.675,481.14 784.691,481.302 784.691,481.464C784.691,482.751 783.632,483.811 782.345,483.811L782.345,483.811Z" style="fill:rgb(63,61,86);fill-rule:nonzero;"/>
    </g>
    <path d="M405.994,233.938C405.994,233.668 405.776,233.45 405.506,233.45L402.554,233.45C402.285,233.45 402.066,233.668 402.066,233.938L402.066,235.318C402.066,235.588 402.285,235.807 402.554,235.807L405.506,235.807C405.776,235.807 405.994,235.588 405.994,235.318L405.994,233.938Z" style="fill:rgb(230,230,230);"/>
    <path d="M413.851,233.938C413.851,233.668 413.632,233.45 413.363,233.45L410.411,233.45C410.141,233.45 409.923,233.668 409.923,233.938L409.923,235.318C409.923,235.588 410.141,235.807 410.411,235.807L413.363,235.807C413.632,235.807 413.851,235.588 413.851,235.318L413.851,233.938Z" style="fill:rgb(230,230,230);"/>
    <path d="M421.708,233.938C421.708,233.668 421.489,233.45 421.22,233.45L418.268,233.45C417.998,233.45 417.779,233.668 417.779,233.938L417.779,235.318C417.779,235.588 417.998,235.807 418.268,235.807L421.22,235.807C421.489,235.807 421.708,235.588 421.708,235.318L421.708,233.938Z" style="fill:rgb(230,230,230);"/>
    <path d="M429.565,233.938C429.565,233.668 429.346,233.45 429.076,233.45L426.124,233.45C425.855,233.45 425.636,233.668 425.636,233.938L425.636,235.318C425.636,235.588 425.855,235.807 426.124,235.807L429.076,235.807C429.346,235.807 429.565,235.588 429.565,235.318L429.565,233.938Z" style="fill:rgb(230,230,230);"/>
    <path d="M437.421,233.938C437.421,233.668 437.203,233.45 436.933,233.45L433.981,233.45C433.712,233.45 433.493,233.668 433.493,233.938L433.493,235.318C433.493,235.588 433.712,235.807 433.981,235.807L436.933,235.807C437.203,235.807 437.421,235.588 437.421,235.318L437.421,233.938Z" style="fill:rgb(230,230,230);"/>
    <path d="M445.278,233.938C445.278,233.668 445.059,233.45 444.79,233.45L441.838,233.45C441.569,233.45 441.35,233.668 441.35,233.938L441.35,235.318C441.35,235.588 441.569,235.807 441.838,235.807L444.79,235.807C445.059,235.807 445.278,235.588 445.278,235.318L445.278,233.938Z" style="fill:rgb(230,230,230);"/>
    <path d="M453.135,233.938C453.135,233.668 452.916,233.45 452.647,233.45L449.695,233.45C449.425,233.45 449.207,233.668 449.207,233.938L449.207,235.318C449.207,235.588 449.425,235.807 449.695,235.807L452.647,235.807C452.916,235.807 453.135,235.588 453.135,235.318L453.135,233.938Z" style="fill:rgb(230,230,230);"/>
    <path d="M460.992,233.938C460.992,233.668 460.773,233.45 460.503,233.45L457.551,233.45C457.282,233.45 457.063,233.668 457.063,233.938L457.063,235.318C457.063,235.588 457.282,235.807 457.551,235.807L460.503,235.807C460.773,235.807 460.992,235.588 460.992,235.318L460.992,233.938Z" style="fill:rgb(230,230,230);"/>
    <path d="M468.848,233.938C468.848,233.668 468.63,233.45 468.36,233.45L465.408,233.45C465.139,233.45 464.92,233.668 464.92,233.938L464.92,235.318C464.92,235.588 465.139,235.807 465.408,235.807L468.36,235.807C468.63,235.807 468.848,235.588 468.848,235.318L468.848,233.938Z" style="fill:rgb(230,230,230);"/>
    <path d="M476.705,233.938C476.705,233.668 476.486,233.45 476.217,233.45L473.265,233.45C472.996,233.45 472.777,233.668 472.777,233.938L472.777,235.318C472.777,235.588 472.996,235.807 473.265,235.807L476.217,235.807C476.486,235.807 476.705,235.588 476.705,235.318L476.705,233.938Z" style="fill:rgb(230,230,230);"/>
    <path d="M484.562,233.938C484.562,233.668 484.343,233.45 484.074,233.45L481.122,233.45C480.852,233.45 480.634,233.668 480.634,233.938L480.634,235.318C480.634,235.588 480.852,235.807 481.122,235.807L484.074,235.807C484.343,235.807 484.562,235.588 484.562,235.318L484.562,233.938Z" style="fill:rgb(230,230,230);"/>
    <path d="M492.419,233.938C492.419,233.668 492.2,233.45 491.931,233.45L488.979,233.45C488.709,233.45 488.49,233.668 488.49,233.938L488.49,235.318C488.49,235.588 488.709,235.807 488.979,235.807L491.931,235.807C492.2,235.807 492.419,235.588 492.419,235.318L492.419,233.938Z" style="fill:rgb(230,230,230);"/>
    <path d="M500.275,233.938C500.275,233.668 500.057,233.45 499.787,233.45L496.835,233.45C496.566,233.45 496.347,233.668 496.347,233.938L496.347,235.318C496.347,235.588 496.566,235.807 496.835,235.807L499.787,235.807C500.057,235.807 500.275,235.588 500.275,235.318L500.275,233.938Z" style="fill:rgb(230,230,230);"/>
    <path d="M508.132,233.938C508.132,233.668 507.913,233.45 507.644,233.45L504.692,233.45C504.423,233.45 504.204,233.668 504.204,233.938L504.204,235.318C504.204,235.588 504.423,235.807 504.692,235.807L507.644,235.807C507.913,235.807 508.132,235.588 508.132,235.318L508.132,233.938Z" style="fill:rgb(230,230,230);"/>
    <path d="M515.989,233.938C515.989,233.668 515.77,233.45 515.501,233.45L512.549,233.45C512.279,233.45 512.061,233.668 512.061,233.938L512.061,235.318C512.061,235.588 512.279,235.807 512.549,235.807L515.501,235.807C515.77,235.807 515.989,235.588 515.989,235.318L515.989,233.938Z" style="fill:rgb(230,230,230);"/>
    <path d="M523.846,233.938C523.846,233.668 523.627,233.45 523.358,233.45L520.406,233.45C520.136,233.45 519.917,233.668 519.917,233.938L519.917,235.318C519.917,235.588 520.136,235.807 520.406,235.807L523.358,235.807C523.627,235.807 523.846,235.588 523.846,235.318L523.846,233.938Z" style="fill:rgb(230,230,230);"/>
    <path d="M405.901,237.866C405.901,237.597 405.683,237.378 405.413,237.378L402.461,237.378C402.192,237.378 401.973,237.597 401.973,237.866L401.973,239.247C401.973,239.516 402.192,239.735 402.461,239.735L405.413,239.735C405.683,239.735 405.901,239.516 405.901,239.247L405.901,237.866Z" style="fill:rgb(230,230,230);"/>
    <path d="M413.758,237.866C413.758,237.597 413.539,237.378 413.27,237.378L410.318,237.378C410.049,237.378 409.83,237.597 409.83,237.866L409.83,239.247C409.83,239.516 410.049,239.735 410.318,239.735L413.27,239.735C413.539,239.735 413.758,239.516 413.758,239.247L413.758,237.866Z" style="fill:rgb(230,230,230);"/>
    <path d="M421.615,237.866C421.615,237.597 421.396,237.378 421.127,237.378L418.175,237.378C417.905,237.378 417.687,237.597 417.687,237.866L417.687,239.247C417.687,239.516 417.905,239.735 418.175,239.735L421.127,239.735C421.396,239.735 421.615,239.516 421.615,239.247L421.615,237.866Z" style="fill:rgb(230,230,230);"/>
    <path d="M429.472,237.866C429.472,237.597 429.253,237.378 428.984,237.378L426.032,237.378C425.762,237.378 425.543,237.597 425.543,237.866L425.543,239.247C425.543,239.516 425.762,239.735 426.032,239.735L428.984,239.735C429.253,239.735 429.472,239.516 429.472,239.247L429.472,237.866Z" style="fill:rgb(230,230,230);"/>
    <path d="M437.329,237.866C437.329,237.597 437.11,237.378 436.84,237.378L433.888,237.378C433.619,237.378 433.4,237.597 433.4,237.866L433.4,239.247C433.4,239.516 433.619,239.735 433.888,239.735L436.84,239.735C437.11,239.735 437.329,239.516 437.329,239.247L437.329,237.866Z" style="fill:rgb(230,230,230);"/>
    <path d="M445.185,237.866C445.185,237.597 444.967,237.378 444.697,237.378L441.745,237.378C441.476,237.378 441.257,237.597 441.257,237.866L441.257,239.247C441.257,239.516 441.476,239.735 441.745,239.735L444.697,239.735C444.967,239.735 445.185,239.516 445.185,239.247L445.185,237.866Z" style="fill:rgb(230,230,230);"/>
    <path d="M453.042,237.866C453.042,237.597 452.823,237.378 452.554,237.378L449.602,237.378C449.332,237.378 449.114,237.597 449.114,237.866L449.114,239.247C449.114,239.516 449.332,239.735 449.602,239.735L452.554,239.735C452.823,239.735 453.042,239.516 453.042,239.247L453.042,237.866Z" style="fill:rgb(230,230,230);"/>
    <path d="M460.899,237.866C460.899,237.597 460.68,237.378 460.411,237.378L457.459,237.378C457.189,237.378 456.97,237.597 456.97,237.866L456.97,239.247C456.97,239.516 457.189,239.735 457.459,239.735L460.411,239.735C460.68,239.735 460.899,239.516 460.899,239.247L460.899,237.866Z" style="fill:rgb(230,230,230);"/>
    <path d="M468.756,237.866C468.756,237.597 468.537,237.378 468.267,237.378L465.315,237.378C465.046,237.378 464.827,237.597 464.827,237.866L464.827,239.247C464.827,239.516 465.046,239.735 465.315,239.735L468.267,239.735C468.537,239.735 468.756,239.516 468.756,239.247L468.756,237.866Z" style="fill:rgb(230,230,230);"/>
    <path d="M476.612,237.866C476.612,237.597 476.394,237.378 476.124,237.378L473.172,237.378C472.903,237.378 472.684,237.597 472.684,237.866L472.684,239.247C472.684,239.516 472.903,239.735 473.172,239.735L476.124,239.735C476.394,239.735 476.612,239.516 476.612,239.247L476.612,237.866Z" style="fill:rgb(230,230,230);"/>
    <path d="M484.469,237.866C484.469,237.597 484.25,237.378 483.981,237.378L481.029,237.378C480.759,237.378 480.541,237.597 480.541,237.866L480.541,239.247C480.541,239.516 480.759,239.735 481.029,239.735L483.981,239.735C484.25,239.735 484.469,239.516 484.469,239.247L484.469,237.866Z" style="fill:rgb(230,230,230);"/>
    <path d="M492.326,237.866C492.326,237.597 492.107,237.378 491.838,237.378L488.886,237.378C488.616,237.378 488.398,237.597 488.398,237.866L488.398,239.247C488.398,239.516 488.616,239.735 488.886,239.735L491.838,239.735C492.107,239.735 492.326,239.516 492.326,239.247L492.326,237.866Z" style="fill:rgb(230,230,230);"/>
    <path d="M500.183,237.866C500.183,237.597 499.964,237.378 499.694,237.378L496.742,237.378C496.473,237.378 496.254,237.597 496.254,237.866L496.254,239.247C496.254,239.516 496.473,239.735 496.742,239.735L499.694,239.735C499.964,239.735 500.183,239.516 500.183,239.247L500.183,237.866Z" style="fill:rgb(230,230,230);"/>
    <path d="M508.039,237.866C508.039,237.597 507.821,237.378 507.551,237.378L504.599,237.378C504.33,237.378 504.111,237.597 504.111,237.866L504.111,239.247C504.111,239.516 504.33,239.735 504.599,239.735L507.551,239.735C507.821,239.735 508.039,239.516 508.039,239.247L508.039,237.866Z" style="fill:rgb(230,230,230);"/>
    <path d="M515.896,237.866C515.896,237.597 515.677,237.378 515.408,237.378L512.456,237.378C512.187,237.378 511.968,237.597 511.968,237.866L511.968,239.247C511.968,239.516 512.187,239.735 512.456,239.735L515.408,239.735C515.677,239.735 515.896,239.516 515.896,239.247L515.896,237.866Z" style="fill:rgb(230,230,230);"/>
    <path d="M523.753,237.866C523.753,237.597 523.534,237.378 523.265,237.378L520.313,237.378C520.043,237.378 519.825,237.597 519.825,237.866L519.825,239.247C519.825,239.516 520.043,239.735 520.313,239.735L523.265,239.735C523.534,239.735 523.753,239.516 523.753,239.247L523.753,237.866Z" style="fill:rgb(230,230,230);"/>
    <path d="M471.113,242.58C471.113,242.311 470.894,242.092 470.624,242.092L440.174,242.092C439.904,242.092 439.686,242.311 439.686,242.58L439.686,243.961C439.686,244.23 439.904,244.449 440.174,244.449L470.624,244.449C470.894,244.449 471.113,244.23 471.113,243.961L471.113,242.58Z" style="fill:rgb(230,230,230);"/>
    <g transform="matrix(1,0,0,1,-255.615,-237.961)">
        <path d="M792.138,306.469L792.138,381.989C792.136,392.45 783.529,401.057 773.068,401.059L678.548,401.059C670.958,401.06 664.058,396.533 661.038,389.569C660.542,388.441 660.163,387.264 659.908,386.059C661.917,386.836 664.054,387.233 666.208,387.229L760.728,387.229C770.367,387.215 778.294,379.288 778.308,369.649L778.308,294.129C778.312,291.974 777.915,289.838 777.138,287.829C778.344,288.084 779.52,288.463 780.648,288.959C787.612,291.979 792.139,298.878 792.138,306.469Z" style="fill:rgb(242,242,242);fill-rule:nonzero;"/>
    </g>
    <path d="M183.897,368.973L174.522,374.778L146.903,340.828L160.739,332.262L183.897,368.973Z" style="fill:rgb(255,182,182);fill-rule:nonzero;"/>
    <g transform="matrix(1,0,0,1,-255.615,-237.961)">
        <path d="M447.605,619.06L440.064,622.427L435.54,615.908L435.27,624.567L415.269,633.495C414.637,633.777 413.953,633.923 413.262,633.923C410.561,633.923 408.338,631.701 408.338,628.999C408.338,628.097 408.586,627.211 409.055,626.44L420.104,608.278L416.89,601.08L434.138,594.583L447.605,619.06Z" style="fill:rgb(47,46,65);fill-rule:nonzero;"/>
    </g>
    <g transform="matrix(1,0,0,1,-255.615,-237.961)">
        <path d="M413.25,600.403L429.083,585.059C417.32,556.03 416.38,538.037 400.071,502.928C438.764,510.842 466.428,510.361 498.427,503.265C509.261,500.901 537.213,479.309 534.915,468.239C534.807,467.721 534.681,467.208 534.534,466.701C531.099,454.989 533.518,437.055 526.083,424.059C512.328,418.873 491.431,436.384 475.083,447.059C467.201,452.206 472.971,459.22 467.083,461.059L444.514,468.385L389.142,459.442C388.125,459.288 387.097,459.21 386.068,459.21C375.914,459.21 367.211,466.751 365.766,476.801C365.672,477.402 365.604,478.007 365.562,478.615C368.11,492.718 370.766,506.451 373.625,519.488C374.548,523.696 372.99,531.763 376.461,531.883C379.932,532.003 378.533,540.347 379.614,544.427C386.269,569.54 390.477,581.694 413.25,600.403Z" style="fill:rgb(47,46,65);fill-rule:nonzero;"/>
    </g>
    <path d="M127.329,429.745L117.562,424.647L133.015,383.711L147.43,391.235L127.329,429.745Z" style="fill:rgb(255,182,182);fill-rule:nonzero;"/>
    <g transform="matrix(1,0,0,1,-255.615,-237.961)">
        <path d="M381.316,637.145L396.977,647.928C416.172,620.168 428.635,583.074 437.916,541.568C474.055,525.803 505.677,507.767 527.713,483.575C535.19,475.194 534.65,462.211 526.503,454.48C526.118,454.118 525.719,453.772 525.307,453.441C515.763,445.838 494.565,450.213 481.016,443.858L456.812,477.358L459.594,485.16L451.174,489.259L444.065,492.72L435.926,496.682L409.248,509.669C402.318,513.133 397.923,520.244 397.923,527.991C397.923,531.227 398.689,534.416 400.159,537.298C400.429,537.844 400.721,538.377 401.037,538.898L391.129,588.258C391.129,588.258 393.855,596.851 389.565,596.047C385.276,595.243 387.613,605.773 387.613,605.773L381.316,637.145Z" style="fill:rgb(47,46,65);fill-rule:nonzero;"/>
    </g>
    <g transform="matrix(1,0,0,1,-255.615,-237.961)">
        <path d="M377.029,690.267L369.708,686.445L372.008,678.851L365.054,684.016L345.635,673.882C344.012,673.034 342.99,671.348 342.99,669.517C342.99,667.043 344.853,664.934 347.308,664.63L368.404,662.014L372.051,655.026L387.854,664.512L377.029,690.267Z" style="fill:rgb(47,46,65);fill-rule:nonzero;"/>
    </g>
    <g transform="matrix(1,0,0,1,-255.615,-237.961)">
        <path d="M590.506,475.665L579.083,448.059L570.083,453.059L575.519,481.141C575.228,482.089 575.081,483.075 575.081,484.067C575.081,489.554 579.596,494.068 585.082,494.068C590.569,494.068 595.083,489.554 595.083,484.067C595.083,480.674 593.357,477.505 590.506,475.665Z" style="fill:rgb(255,182,182);fill-rule:nonzero;"/>
    </g>
    <g transform="matrix(1,0,0,1,-255.615,-237.961)">
        <path d="M398.823,257.368L416.204,281.668L423.837,274.758L412.18,248.638C412.196,248.411 412.203,248.183 412.203,247.955C412.203,242.469 407.689,237.954 402.202,237.954C396.716,237.954 392.201,242.469 392.201,247.955C392.201,252.166 394.86,255.945 398.823,257.368L398.823,257.368Z" style="fill:rgb(255,182,182);fill-rule:nonzero;"/>
    </g>
    <g transform="matrix(1,0,0,1,-255.615,-237.961)">
        <path d="M477.312,411.382C466.038,428.868 507.34,466.968 529.083,458.059C532.891,456.499 545.988,451.346 537.036,444.203C528.083,437.059 538.073,445.054 538.31,440.403C538.467,437.294 536.06,430.474 538.572,430.766C541.083,431.059 542.525,423.795 537.055,421.945C533.179,420.561 530.443,417.042 530.055,412.945C529.532,393.778 536.023,373.768 536.023,373.768L562.521,441.502C562.521,441.502 562.325,453.221 565.704,449.64C569.083,446.059 568.837,457.649 568.837,457.649C568.837,457.649 573.862,461.156 570.973,463.107C568.083,465.059 574.083,471.059 574.083,471.059L588.083,470.059C588.083,470.059 587.864,459.659 585.474,457.359C583.083,455.059 584.257,451.44 584.257,451.44C584.257,451.44 579.329,446.856 582.206,441.457C585.083,436.059 561.255,339.496 561.255,339.496C559.312,330.037 552.199,322.439 542.889,319.875L527.768,315.712L525.083,305.059L503.792,305.059L500.083,312.059L466.083,309.059C466.083,309.059 432.441,278.449 434.083,276.059C435.726,273.669 430.511,268.073 430.511,268.073C430.511,268.073 426.057,266.615 428.57,265.837C431.083,265.059 426.333,263.259 426.333,263.259C426.333,263.259 421.933,262.103 424.008,260.581C426.083,259.059 417.083,258.059 417.083,258.059L405.406,267.586L407.766,271.588C407.766,271.588 406.327,277.038 408.205,275.048C410.083,273.059 410.437,278.832 410.437,278.832C410.437,278.832 411.396,285.154 417.083,287.059C422.771,288.964 427.083,307.059 427.083,307.059L475.083,347.059C467.773,355.45 469.513,364.225 475.989,373.201L477.312,411.382Z" style="fill:rgb(233,186,56);fill-rule:nonzero;"/>
    </g>
    <circle cx="258.343" cy="36.964" r="23.056" style="fill:rgb(255,182,182);"/>
    <g transform="matrix(1,0,0,1,-255.615,-237.961)">
        <path d="M534.083,268.059C533.493,268.229 524.833,269.359 521.083,270.059C517.403,270.749 516.763,266.059 513.753,266.939C513.755,266.918 513.752,266.898 513.743,266.879C513.277,264.394 512.48,261.982 511.373,259.709C511.775,261.886 511.832,264.114 511.543,266.309C511.542,266.366 511.535,266.423 511.523,266.479C511.513,266.579 511.493,266.669 511.483,266.769C508.303,265.369 506.283,266.619 504.083,267.059C501.623,267.549 499.703,268.629 501.083,277.059C503.913,294.399 518.633,300.589 516.083,312.059C515.583,314.329 514.323,317.169 512.743,317.879C512.277,315.394 511.48,312.982 510.373,310.709C510.775,312.886 510.832,315.114 510.543,317.309C508.093,314.659 506.323,305.399 498.083,298.059C496.053,296.259 485.883,285.579 484.663,283.059C485.038,285.074 485.219,287.12 485.203,289.169C485.206,290.54 485.112,291.91 484.923,293.269C484.923,293.356 484.913,293.444 484.893,293.529C484.883,293.689 484.853,293.829 484.833,293.979C484.813,294.149 484.783,294.309 484.753,294.479C481.423,293.999 478.473,293.419 477.083,292.059C470.323,285.479 478.573,272.659 483.083,261.059C489.533,244.449 508.263,242.239 510.083,242.059C518.103,241.249 531.653,242.969 536.083,252.059C539.183,258.429 537.203,267.159 534.083,268.059Z" style="fill:rgb(47,46,65);fill-rule:nonzero;"/>
    </g>
    <g transform="matrix(1,0,0,1,-255.615,-237.961)">
        <path d="M485.468,271.808L502.169,245.828C498.167,243.504 493.609,242.309 488.981,242.368C484.319,242.465 479.912,244.544 476.872,248.08C473.461,252.319 472.876,258.312 474.154,263.6C474.595,265.427 483,259 481,262C479.358,264.349 476.673,274.222 476,277C474.916,281.472 471.937,286.062 474.591,289.821C477.73,294.265 483.331,296.474 488.767,296.699C494.204,296.923 499.555,295.416 504.722,293.71L485.468,271.808Z" style="fill:rgb(47,46,65);fill-rule:nonzero;"/>
    </g>
    <g transform="matrix(1,0,0,1,-255.615,-237.961)">
        <path d="M491.886,270.783C491.337,270.783 490.887,270.332 490.887,269.783C490.887,269.338 491.184,268.944 491.613,268.822C491.875,268.389 491.767,266.568 491.681,265.097C491.356,259.573 490.811,250.328 499.787,244.087C499.955,243.971 500.154,243.908 500.358,243.908C500.906,243.908 501.358,244.36 501.358,244.908C501.358,245.235 501.197,245.542 500.929,245.729C492.874,251.33 493.357,259.544 493.678,264.979C493.86,268.087 493.993,270.331 492.108,270.759C492.035,270.775 491.96,270.784 491.886,270.783Z" style="fill:rgb(233,186,56);fill-rule:nonzero;"/>
    </g>
    <g transform="matrix(1,0,0,1,-255.615,-237.961)">
        <path d="M255.615,689.912C255.613,690.563 256.147,691.1 256.798,691.102L972.095,691.102C972.748,691.102 973.285,690.565 973.285,689.912C973.285,689.259 972.748,688.722 972.095,688.722L256.805,688.722C256.804,688.722 256.802,688.722 256.801,688.722C256.152,688.722 255.617,689.255 255.615,689.905L255.615,689.912Z" style="fill:rgb(204,204,204);fill-rule:nonzero;"/>
    </g>
    <g transform="matrix(1,0,0,1,-255.615,-237.961)">
        <path d="M698.15,332.811L683.017,332.811C682.187,332.811 681.504,332.128 681.504,331.297C681.504,330.467 682.187,329.784 683.017,329.784L698.15,329.784C698.98,329.784 699.663,330.467 699.663,331.297C699.663,332.128 698.98,332.811 698.15,332.811Z" style="fill:rgb(233,186,56);fill-rule:nonzero;"/>
    </g>
    <g transform="matrix(1,0,0,1,-255.615,-237.961)">
        <path d="M725.387,332.811L710.255,332.811C709.425,332.811 708.742,332.128 708.742,331.297C708.742,330.467 709.425,329.784 710.255,329.784C710.255,329.784 725.387,329.784 725.387,329.784C726.217,329.784 726.9,330.467 726.9,331.297C726.9,332.128 726.217,332.811 725.387,332.811C725.387,332.811 725.387,332.811 725.387,332.811Z" style="fill:rgb(233,186,56);fill-rule:nonzero;"/>
    </g>
    <g transform="matrix(1,0,0,1,-255.615,-237.961)">
        <path d="M739.006,344.916L723.874,344.916C723.044,344.916 722.361,344.233 722.361,343.403C722.361,342.573 723.044,341.89 723.874,341.89C723.874,341.89 739.006,341.89 739.006,341.89C739.836,341.89 740.519,342.573 740.519,343.403C740.519,344.233 739.836,344.916 739.006,344.916C739.006,344.916 739.006,344.916 739.006,344.916Z" style="fill:rgb(233,186,56);fill-rule:nonzero;"/>
    </g>
    <g transform="matrix(1,0,0,1,-255.615,-237.961)">
        <path d="M711.852,344.916L683.017,344.916C682.187,344.916 681.504,344.233 681.504,343.403C681.504,342.573 682.187,341.89 683.017,341.89L711.852,341.89C712.682,341.89 713.365,342.573 713.365,343.403C713.365,344.233 712.682,344.916 711.852,344.916Z" style="fill:rgb(233,186,56);fill-rule:nonzero;"/>
    </g>
    <g transform="matrix(1,0,0,1,-255.615,-237.961)">
        <path d="M766.327,332.811L737.493,332.811C736.663,332.811 735.98,332.128 735.98,331.297C735.98,330.467 736.663,329.784 737.493,329.784L766.327,329.784C767.157,329.784 767.841,330.467 767.841,331.297C767.841,332.128 767.157,332.811 766.327,332.811C766.327,332.811 766.327,332.811 766.327,332.811Z" style="fill:rgb(233,186,56);fill-rule:nonzero;"/>
    </g>
    <g transform="matrix(1,0,0,1,-255.615,-237.961)">
        <path d="M708.509,309.887L679.675,309.887C679.674,309.887 679.672,309.887 679.671,309.887C678.841,309.887 678.158,309.204 678.158,308.373C678.158,307.543 678.841,306.86 679.671,306.86C679.672,306.86 679.674,306.86 679.675,306.86L708.509,306.86C709.339,306.86 710.022,307.543 710.022,308.373C710.022,309.204 709.339,309.887 708.509,309.887C708.509,309.887 708.509,309.887 708.509,309.887Z" style="fill:rgb(233,186,56);fill-rule:nonzero;"/>
    </g>
    <g transform="matrix(1,0,0,1,-255.615,-237.961)">
        <path d="M710.88,318.727C710.88,318.727 710.88,318.727 710.879,318.727C710.136,318.727 709.524,318.116 709.524,317.372C709.524,316.954 709.718,316.559 710.048,316.302L717.431,310.563C718.092,310.05 718.479,309.258 718.479,308.421C718.479,307.739 718.222,307.081 717.759,306.58L711.56,299.869C711.329,299.619 711.2,299.29 711.2,298.949C711.2,298.206 711.812,297.594 712.555,297.594C712.933,297.594 713.294,297.752 713.551,298.03L722.756,307.994C722.987,308.245 723.116,308.573 723.116,308.914C723.116,309.332 722.922,309.727 722.592,309.984L711.711,318.442C711.474,318.627 711.181,318.728 710.88,318.727Z" style="fill:rgb(233,186,56);fill-rule:nonzero;"/>
    </g>
    <g transform="matrix(1,0,0,1,-255.615,-237.961)">
        <path d="M678.216,318.727C678.216,318.727 678.216,318.727 678.217,318.727C678.96,318.727 679.572,318.116 679.572,317.372C679.572,316.954 679.378,316.559 679.048,316.302L671.665,310.563C671.004,310.05 670.617,309.258 670.617,308.421C670.617,307.739 670.874,307.081 671.337,306.58L677.536,299.869C677.767,299.619 677.896,299.29 677.896,298.949C677.896,298.206 677.284,297.594 676.54,297.594C676.163,297.594 675.802,297.752 675.545,298.03L666.34,307.994C666.109,308.245 665.98,308.573 665.98,308.914C665.98,309.332 666.174,309.727 666.503,309.984L677.385,318.442C677.622,318.627 677.915,318.728 678.216,318.727Z" style="fill:rgb(233,186,56);fill-rule:nonzero;"/>
    </g>
    <g transform="matrix(1,0,0,1,-255.615,-237.961)">
        <path d="M723.416,370.867L694.581,370.867C693.751,370.867 693.068,370.184 693.068,369.353C693.068,368.523 693.751,367.84 694.581,367.84L723.416,367.84C724.246,367.84 724.929,368.523 724.929,369.353C724.929,370.184 724.246,370.867 723.416,370.867Z" style="fill:rgb(233,186,56);fill-rule:nonzero;"/>
    </g>
    <g transform="matrix(1,0,0,1,-255.615,-237.961)">
        <path d="M728.497,378.352C728.496,378.352 728.496,378.352 728.496,378.352C727.752,378.352 727.141,377.741 727.141,376.997C727.141,376.579 727.334,376.184 727.664,375.927L735.047,370.188C735.708,369.675 736.096,368.883 736.096,368.046C736.096,367.364 735.838,366.706 735.375,366.205L729.177,359.494C728.945,359.244 728.817,358.915 728.817,358.574C728.817,357.831 729.429,357.219 730.172,357.219C730.55,357.219 730.911,357.377 731.167,357.654L740.372,367.619C740.604,367.87 740.732,368.198 740.732,368.539C740.732,368.957 740.539,369.352 740.209,369.609L729.328,378.067C729.09,378.252 728.798,378.352 728.497,378.352Z" style="fill:rgb(233,186,56);fill-rule:nonzero;"/>
    </g>
    <g transform="matrix(1,0,0,1,-255.615,-237.961)">
        <path d="M678.216,378.352C678.216,378.352 678.216,378.352 678.217,378.352C678.96,378.352 679.572,377.741 679.572,376.997C679.572,376.579 679.378,376.184 679.048,375.927L671.665,370.188C671.004,369.675 670.617,368.883 670.617,368.046C670.617,367.364 670.874,366.706 671.337,366.205L677.536,359.494C677.767,359.244 677.896,358.915 677.896,358.574C677.896,357.831 677.284,357.219 676.54,357.219C676.163,357.219 675.802,357.377 675.545,357.654L666.34,367.619C666.109,367.87 665.98,368.198 665.98,368.539C665.98,368.957 666.174,369.352 666.503,369.609L677.385,378.067C677.622,378.252 677.915,378.352 678.216,378.352Z" style="fill:rgb(233,186,56);fill-rule:nonzero;"/>
    </g>
    <g transform="matrix(1,0,0,1,-255.615,-237.961)">
        <path d="M680.789,374.113L686.85,360.247C687.092,359.701 687.636,359.347 688.234,359.347C689.064,359.347 689.747,360.03 689.747,360.86C689.747,361.066 689.705,361.27 689.623,361.46L683.562,375.325C683.323,375.878 682.776,376.239 682.173,376.239C681.343,376.239 680.66,375.555 680.66,374.725C680.66,374.514 680.704,374.306 680.789,374.113L680.789,374.113Z" style="fill:rgb(233,186,56);fill-rule:nonzero;"/>
    </g>
</svg>
