<?xml version="1.0" encoding="UTF-8" standalone="no"?>
<!DOCTYPE svg PUBLIC "-//W3C//DTD SVG 1.1//EN" "http://www.w3.org/Graphics/SVG/1.1/DTD/svg11.dtd">
<svg width="100%" height="100%" viewBox="0 0 718 545" version="1.1" xmlns="http://www.w3.org/2000/svg" xmlns:xlink="http://www.w3.org/1999/xlink" xml:space="preserve" xmlns:serif="http://www.serif.com/" style="fill-rule:evenodd;clip-rule:evenodd;stroke-linejoin:round;stroke-miterlimit:1.41421;">
    <g transform="matrix(1,0,0,1,-241.165,-177.719)">
        <path d="M528.351,230.246C519.607,245.309 536.071,270.689 519.478,275.959L520.845,274.592C530.861,262.272 509.926,236.195 519.942,223.875C521.498,222.068 522.834,220.082 523.922,217.959" style="fill:rgb(47,46,65);fill-rule:nonzero;"/>
    </g>
    <g transform="matrix(1,0,0,1,-241.165,-177.719)">
        <path d="M610.237,451.231C610.36,450.585 610.421,449.928 610.421,449.27C610.421,443.558 605.758,438.84 600.046,438.775L578.433,375.982L566.469,391.231L589.321,449.904C589.626,455.467 594.286,459.879 599.858,459.879C604.93,459.879 609.321,456.221 610.237,451.231Z" style="fill:rgb(255,184,184);fill-rule:nonzero;"/>
    </g>
    <g transform="matrix(1,0,0,1,-241.165,-177.719)">
        <path d="M515.231,299.624C515.231,299.624 514.558,276.893 534.885,289.915C555.211,302.936 599.467,424.914 599.467,424.914L577.443,436.829L527.447,325.206L515.231,299.624Z" style="fill:rgb(35,39,42);fill-rule:nonzero;"/>
    </g>
    <path d="M334.034,511.488L323.884,515.825L302.324,478.74L317.305,472.338L334.034,511.488Z" style="fill:rgb(255,182,182);fill-rule:nonzero;"/>
    <g transform="matrix(1,0,0,1,-241.165,-177.719)">
        <path d="M588.071,704.503L580.792,707.613L576.556,701.296L576.165,709.59L556.86,717.84C556.274,718.09 555.643,718.219 555.005,718.219C552.416,718.219 550.286,716.089 550.286,713.5C550.286,712.609 550.538,711.736 551.013,710.983L561.88,693.748L558.911,686.8L575.541,680.839L588.071,704.503Z" style="fill:rgb(47,46,65);fill-rule:nonzero;"/>
    </g>
    <path d="M174.924,524.067L163.9,523.528L160.731,480.749L177.003,481.544L174.924,524.067Z" style="fill:rgb(255,182,182);fill-rule:nonzero;"/>
    <g transform="matrix(1,0,0,1,-241.165,-177.719)">
        <path d="M420.975,721.171L413.068,720.785L412.022,713.252L408.043,720.539L387.074,719.514C384.575,719.392 382.585,717.303 382.585,714.801C382.585,713.17 383.43,711.651 384.816,710.791L402.126,700.045L402.495,692.499L420.056,694.411L420.975,721.171Z" style="fill:rgb(47,46,65);fill-rule:nonzero;"/>
    </g>
    <g transform="matrix(1,0,0,1,-241.165,-177.719)">
        <path d="M740.917,694.969C740.96,694.971 741.003,694.972 741.047,694.972C743.002,694.972 744.611,693.363 744.611,691.408C744.611,690.403 744.185,689.443 743.441,688.768C743.348,688.412 743.281,688.156 743.188,687.8C744.602,684.102 748.171,681.647 752.13,681.647C755.958,681.647 759.433,683.942 760.936,687.463C765.254,697.309 770.817,707.491 768.203,718.406C785.797,680.178 779.239,632.898 752.392,600.606C745.019,596.635 739.005,589.512 737.378,581.191C741.02,582.387 745.518,579.391 742.752,575.593C741.555,574.143 740.347,572.704 739.15,571.254C752.8,556.436 769.45,579.361 754.46,599.328C759.485,605.506 763.85,612.193 767.484,619.278C766.589,611.726 767.499,604.069 770.14,596.937C772.822,590.288 777.915,584.661 782.391,578.893C787.834,571.864 799.204,574.975 800.03,583.82C794.961,585.54 794.371,592.891 800.197,593.841C798.83,610.324 788.215,625.562 773.465,632.925C779.083,648.228 781.376,664.553 780.19,680.811C782.625,661.8 802.961,656.998 817.134,649.316C818.037,648.725 819.094,648.41 820.174,648.41C823.218,648.41 825.723,650.915 825.723,653.959C825.723,654.259 825.699,654.56 825.65,654.856C823.691,655.674 821.819,656.685 820.06,657.873C818.745,658.776 817.957,660.272 817.957,661.867C817.957,664.372 819.899,666.484 822.395,666.695C815.384,684.534 796.933,696.644 777.866,696.758C776.11,704.738 773.529,712.513 770.165,719.959L741.867,720.229C741.762,719.915 741.668,719.592 741.574,719.278C744.194,719.418 746.823,719.236 749.399,718.737C742.391,710.598 736.992,706.463 740.916,694.97L740.917,694.969Z" style="fill:rgb(242,242,242);fill-rule:nonzero;"/>
    </g>
    <g transform="matrix(1,0,0,1,-241.165,-177.719)">
        <path d="M443.939,423.704C443.939,423.704 421.52,484.801 421.157,491.638C420.795,498.476 414.402,584.936 409.039,589.959C403.677,594.983 387.283,672.867 400.039,678.959C412.795,685.051 453.039,674.959 453.039,674.959L467.039,582.959L471.795,512.476C471.795,512.476 486.274,678.452 512.535,677.964C538.795,677.476 570.795,667.476 570.795,667.476L534.039,566.959C534.039,566.959 534.559,447.961 526.039,423.959C517.52,399.958 443.939,423.704 443.939,423.704Z" style="fill:rgb(47,46,65);fill-rule:nonzero;"/>
    </g>
    <g transform="matrix(1,0,0,1,-241.165,-177.719)">
        <path d="M510.463,266.293L480.439,269.044L475.602,283.891C475.602,283.891 450.476,297.69 456.039,303.959C461.603,310.228 454.795,352.476 454.795,352.476L456.333,386.769C456.333,386.769 454.681,410.527 449.738,416.002C444.795,421.476 431.863,434.899 441.001,428.477C473.039,405.959 529.039,424.959 529.039,424.959L521.039,375.959C521.039,375.959 539.21,295.735 532.039,288.959C524.868,282.184 518.102,281.328 518.102,281.328L510.463,266.293Z" style="fill:rgb(35,39,42);fill-rule:nonzero;"/>
    </g>
    <g transform="matrix(1,0,0,1,-241.165,-177.719)">
        <path d="M352.699,421.721C357.649,420.8 361.273,416.439 361.273,411.403C361.273,410.138 361.044,408.883 360.598,407.7L411.238,364.737L392.683,359.136L346.332,401.754C342.572,403.464 340.148,407.23 340.148,411.36C340.148,417.149 344.911,421.912 350.7,421.912C351.371,421.912 352.04,421.848 352.699,421.721Z" style="fill:rgb(255,184,184);fill-rule:nonzero;"/>
    </g>
    <g transform="matrix(1,0,0,1,-241.165,-177.719)">
        <path d="M481.305,309.344C481.305,309.344 491.282,288.909 467.396,292.4C443.51,295.89 352.931,388.802 352.931,388.802L368.09,408.733L459.634,327.621L481.305,309.344Z" style="fill:rgb(35,39,42);fill-rule:nonzero;"/>
    </g>
    <g transform="matrix(1,0,0,1,-241.165,-177.719)">
        <path d="M442.407,274.682L347.705,396.008C344.317,400.363 345.101,406.733 349.446,410.135C371.438,463.534 437.233,503.131 514.632,539.073C518.986,542.465 525.358,541.679 528.758,537.332L623.461,416.006C626.853,411.652 626.067,405.279 621.72,401.879C556.768,365.203 500.942,322.711 456.534,272.941C452.179,269.553 445.809,270.338 442.407,274.682Z" style="fill:rgb(230,230,230);fill-rule:nonzero;"/>
    </g>
    <g transform="matrix(1,0,0,1,-241.165,-177.719)">
        <path d="M616.814,413.245L587.988,450.176C551.573,496.548 483.549,504.931 436.965,468.788L356.18,405.73C353.705,403.798 353.255,400.172 355.182,397.693L446.693,280.455C448.63,277.984 452.256,277.541 454.732,279.472C495.597,332.242 550.299,373.306 615.824,405.215C618.295,407.148 618.742,410.77 616.814,413.245Z" style="fill:white;fill-rule:nonzero;"/>
    </g>
    <g transform="matrix(1,0,0,1,-241.165,-177.719)">
        <path d="M440.518,340.915L421.745,364.966C421.167,365.705 420.279,366.137 419.341,366.137C417.667,366.137 416.29,364.76 416.29,363.086C416.29,362.407 416.517,361.747 416.934,361.211L435.708,337.16C436.285,336.418 437.175,335.984 438.115,335.984C439.788,335.984 441.166,337.361 441.166,339.035C441.166,339.716 440.938,340.378 440.518,340.915Z" style="fill:rgb(204,204,204);fill-rule:nonzero;"/>
    </g>
    <g transform="matrix(1,0,0,1,-241.165,-177.719)">
        <path d="M475.731,323.074L434.503,375.892C433.926,376.633 433.037,377.066 432.098,377.066C430.424,377.066 429.047,375.689 429.047,374.015C429.047,373.335 429.275,372.674 429.693,372.138L470.921,319.32C471.499,318.577 472.388,318.142 473.329,318.142C475.003,318.142 476.38,319.519 476.38,321.193C476.38,321.875 476.152,322.537 475.731,323.074Z" style="fill:rgb(204,204,204);fill-rule:nonzero;"/>
    </g>
    <circle cx="164.251" cy="213.36" r="20.096" style="fill:rgb(35,39,42);"/>
    <g transform="matrix(1,0,0,1,-241.165,-177.719)">
        <path d="M477.92,364.818L427.284,429.69C426.707,430.277 425.917,430.609 425.093,430.609C423.408,430.609 422.022,429.223 422.022,427.538C422.022,426.972 422.179,426.417 422.474,425.935L473.11,361.064C473.687,360.476 474.477,360.144 475.301,360.144C476.986,360.144 478.372,361.531 478.372,363.215C478.372,363.781 478.215,364.336 477.92,364.818Z" style="fill:rgb(204,204,204);fill-rule:nonzero;"/>
    </g>
    <g transform="matrix(1,0,0,1,-241.165,-177.719)">
        <path d="M510.769,350.007L440.093,440.552C439.516,441.139 438.726,441.471 437.902,441.471C436.218,441.471 434.831,440.085 434.831,438.4C434.831,437.834 434.988,437.279 435.283,436.797L505.959,346.252C506.536,345.665 507.326,345.333 508.15,345.333C509.834,345.333 511.221,346.719 511.221,348.404C511.221,348.97 511.064,349.524 510.769,350.007Z" style="fill:rgb(204,204,204);fill-rule:nonzero;"/>
    </g>
    <g transform="matrix(1,0,0,1,-241.165,-177.719)">
        <path d="M510.524,390.267L459.887,455.138C459.31,455.726 458.52,456.058 457.696,456.058C456.012,456.058 454.626,454.671 454.626,452.987C454.626,452.421 454.782,451.866 455.077,451.384L505.713,386.512C506.29,385.925 507.081,385.593 507.904,385.593C509.589,385.593 510.975,386.979 510.975,388.664C510.975,389.23 510.819,389.785 510.524,390.267Z" style="fill:rgb(204,204,204);fill-rule:nonzero;"/>
    </g>
    <g transform="matrix(1,0,0,1,-241.165,-177.719)">
        <path d="M577.524,398.267L526.887,463.138C526.31,463.726 525.52,464.058 524.696,464.058C523.012,464.058 521.626,462.671 521.626,460.987C521.626,460.421 521.782,459.866 522.077,459.384L572.713,394.512C573.29,393.925 574.081,393.593 574.904,393.593C576.589,393.593 577.975,394.979 577.975,396.664C577.975,397.23 577.819,397.785 577.524,398.267Z" style="fill:rgb(35,39,42);fill-rule:nonzero;"/>
    </g>
    <g transform="matrix(1,0,0,1,-241.165,-177.719)">
        <path d="M543.372,375.456L472.697,466C472.119,466.588 471.329,466.92 470.506,466.92C468.821,466.92 467.435,465.533 467.435,463.849C467.435,463.283 467.591,462.728 467.886,462.246L538.562,371.701C539.139,371.114 539.929,370.782 540.753,370.782C542.438,370.782 543.824,372.168 543.824,373.853C543.824,374.419 543.668,374.973 543.372,375.456Z" style="fill:rgb(204,204,204);fill-rule:nonzero;"/>
    </g>
    <g transform="matrix(1,0,0,1,-241.165,-177.719)">
        <path d="M460.126,227.962C460.126,227.966 460.126,227.97 460.126,227.973C460.126,244.334 473.589,257.796 489.949,257.796C506.31,257.796 519.772,244.334 519.772,227.973C519.772,220.256 516.777,212.833 511.422,207.277L511.278,207.134C511.04,206.883 510.801,206.633 510.551,206.394C510.544,206.394 510.539,206.389 510.539,206.383L510.539,206.382C510.229,206.096 509.919,205.81 509.596,205.535C504.16,200.769 497.171,198.139 489.941,198.139C473.585,198.139 460.126,211.598 460.126,227.954C460.126,227.957 460.126,227.96 460.126,227.962Z" style="fill:rgb(47,46,65);fill-rule:nonzero;"/>
    </g>
    <circle cx="256.132" cy="57.144" r="25.008" style="fill:rgb(255,184,184);"/>
    <g transform="matrix(1,0,0,1,-241.165,-177.719)">
        <path d="M470.637,241.527C468.193,230.511 471.726,218.17 479.429,210.816C487.322,203.429 498.796,201.205 508.877,205.108C509.506,205.362 510.135,205.64 510.752,205.93L511.039,206.065L511.039,206.107C511.095,206.146 511.151,206.186 511.206,206.227C511.323,206.336 511.465,206.415 511.619,206.455C516.009,206.34 520.245,208.106 523.253,211.305C527.129,215.51 528.954,222.307 528.395,230.442L528.377,230.696L528.16,230.832C525.226,232.691 522.181,234.37 519.042,235.859C508.064,241.021 498.041,241.978 488.409,238.779L488.232,238.721L484.189,231.945C483.359,236.618 483.802,252.119 479.039,252.959L470.741,241.994L470.637,241.527Z" style="fill:rgb(47,46,65);fill-rule:nonzero;"/>
    </g>
    <g transform="matrix(1,0,0,1,-241.165,-177.719)">
        <path d="M417.994,263.301C426.504,258.908 415.559,242.966 417.758,233.646C419.958,224.325 435.795,221.327 436.804,211.803C437.813,202.28 440.187,192.457 446.471,185.231C450.487,180.613 456.404,177.204 462.496,177.783C469.855,178.481 475.543,184.735 475.543,192.127C475.543,193.289 475.402,194.447 475.124,195.575C476.859,193.117 481.348,193.65 482.459,196.445C483.447,198.931 481.265,201.941 478.696,202.161C475.336,206.311 471.488,210.715 466.223,211.552C464.525,211.942 462.738,211.53 461.382,210.435C460.144,209.245 460.047,206.867 461.517,205.979C454.901,208.607 451.022,215.76 450.04,222.811C449.058,229.862 450.416,236.996 451.311,244.059C452.206,251.122 452.592,258.551 449.823,265.109C446.551,272.858 439.018,278.412 430.798,280.193C422.577,281.974 413.822,280.234 406.381,276.312C398.94,272.39 392.735,266.402 387.666,259.69C396.397,265.89 408.478,268.213 417.994,263.301Z" style="fill:rgb(47,46,65);fill-rule:nonzero;"/>
    </g>
    <g transform="matrix(1,0,0,1,-241.165,-177.719)">
        <path d="M485.351,233.246C476.607,248.309 493.071,273.689 476.478,278.959L477.845,277.592C487.861,265.272 466.926,239.195 476.942,226.875C478.498,225.068 479.834,223.082 480.922,220.959" style="fill:rgb(47,46,65);fill-rule:nonzero;"/>
    </g>
    <g transform="matrix(1,0,0,1,-241.165,-177.719)">
        <path d="M471.805,241.299C471.805,241.299 479.213,213.647 510.968,207.265C511.004,207.253 511.123,207.205 511.278,207.134C511.374,207.074 511.493,207.015 511.612,206.955C511.255,206.752 510.909,206.573 510.551,206.394C510.544,206.394 510.539,206.389 510.539,206.383L510.539,206.382C510.229,206.096 509.919,205.81 509.596,205.535L508.69,205.571C508.69,205.571 476.827,200.525 471.805,241.299Z" style="fill:rgb(253,101,132);fill-rule:nonzero;"/>
    </g>
    <g transform="matrix(1,0,0,1,-241.165,-177.719)">
        <path d="M241.165,721.091C241.165,721.093 241.165,721.094 241.165,721.095C241.165,721.746 241.701,722.281 242.351,722.281L957.645,722.281C958.298,722.281 958.835,721.744 958.835,721.091C958.835,720.439 958.298,719.901 957.645,719.901L242.355,719.901C242.354,719.901 242.353,719.901 242.352,719.901C241.701,719.901 241.165,720.437 241.165,721.088C241.165,721.089 241.165,721.09 241.165,721.091Z" style="fill:rgb(204,204,204);fill-rule:nonzero;"/>
    </g>
</svg>
